<svg xmlns="http://www.w3.org/2000/svg" viewBox="0 0 110 36" fill="currentColor">
    <path d="M27 13H14v4h9c0 5-5 7-9 7A10 10 0 0 1 4 14a10 10 0 0 1 17-7l3-3s-4-4-10-4C6 0 0 7 0 14s6 14 14 14 13-5 13-13v-2z"/>
    <use xlink:href="#a" width="100%" height="100%" transform="translate(-6 -14)"/>
    <use xlink:href="#a" width="100%" height="100%" x="19" transform="translate(-6 -14)"/>
    <path d="M76 10a9 9 0 0 0-8 9c0 5 4 9 8 9 3 0 4-1 5-2v2c0 3-2 5-5 5-2 0-4-3-4-4l-3 2a9 9 0 0 0 8 5c4 0 8-3 8-9V11h-4v1a6 6 0 0 0-5-2zm1 3c2 0 5 3 5 6s-3 5-5 5c-3 0-5-2-5-5s2-6 5-6z"/>
    <path d="M102 10c-5 0-9 4-9 9 0 6 5 9 9 9s6-2 8-4l-3-2a5 5 0 0 1-5 2l-4-2 12-5-1-2a8 8 0 0 0-7-5zm0 3 3 2-8 4c0-3 2-6 5-6z"/>
    <path d="M88 27h4V1h-4z"/>
    <defs>
        <path id="a" d="M43 24c-5 0-9 4-9 9 0 4 3 8 9 8 4 0 8-3 8-8 0-6-4-9-8-9zm0 3c2 0 5 2 5 5 0 4-3 6-5 6-3 0-5-2-5-6 0-2 2-5 5-5z"/>
    </defs>
</svg>