<svg xmlns="http://www.w3.org/2000/svg" viewBox="0 0 833.7 304.8" fill="currentColor">
	<path d="M499.3.5a104.4 104.4 0 1 0 0 208.8 104.4 104.4 0 0 0 0-208.8Zm0 169.6a65.2 65.2 0 1 1 0-130.4 65.2 65.2 0 0 1 0 130.4ZM355.2.9a96 96 0 0 0-15.9-.5l-5.2.3A106.3 106.3 0 0 0 275 23.5a95.8 95.8 0 0 0-35.6 66.2l-.3 5.4-.1 2.7v2.5l.2 69.9.2 34.9h39.1l.2-34.9.2-69.9v-3.7l.2-3.3c.2-2.2.6-4.3 1-6.5a55.7 55.7 0 0 1 19.7-32.2c7-5.6 15.1-9.7 23.7-12 4.4-1.2 9-2 13.6-2.4l3.5-.2 3.5-.1a65.6 65.6 0 0 1 32.1 8.3l19.5-33.9A103.7 103.7 0 0 0 355.2.9ZM105.3 0a104.4 104.4 0 0 0-1.9 208.7h36.2v-39.1h-34.3a65.2 65.2 0 1 1-1.5-130.5h1.5c36 0 65.2 29.2 65.4 65.2v96.1a65.5 65.5 0 0 1-64.7 65.2c-17.1-.1-33.4-7-45.4-19.1l-27.7 27.7a103.2 103.2 0 0 0 72.4 30.5h1.4c56.9-.8 102.6-47 102.9-103.9v-99.1A104.4 104.4 0 0 0 105.3 0Zm624.4.5a104.3 104.3 0 1 0 0 208.7h35.7v-39.1h-35.7a65.2 65.2 0 1 1 65-70.8h-.1v200.4h39.1V104.9C833.7 47.3 787.2.5 729.7.5Z"/>
</svg>