<svg xmlns="http://www.w3.org/2000/svg" fill="currentColor" viewBox="0 0 512 164">
    <path d="M202 28h11l5 17 1 6h1l1-6 5-17h11v47h-9V60l1-21-4 13-3 11h-5l-4-11-3-13h-1v1l2 21v14h-9zm44 38h11V37h-11v-9h33v9h-11v29h11v9h-33zm42 3 6-7c4 3 8 5 13 5 4 0 6-2 6-4 0-3-3-4-7-6l-6-3c-5-2-10-6-10-13s7-14 17-14c6 0 12 3 16 7l-6 6c-3-2-6-3-10-3s-6 1-6 4 3 4 7 5l6 3c6 2 10 6 10 13s-6 14-18 14c-6 0-13-2-18-7zm56-32h-14v-9h39v9h-14v38h-11zm43 0h5c6 0 9 1 9 6s-3 7-9 7h-5zm26 38-10-18c5-3 8-7 8-14 0-11-8-15-18-15h-17v47h11V58h5l9 17zm18-19 1-4 4-16 3 11 2 9zm15 19h11l-15-47h-12l-15 47h11l3-11h14zm19-47h11v38h21v9h-32z"/>
    <path d="m214 131 1-4 4-15 3 11 2 8zm15 20h11l-14-47h-13l-15 47h11l3-11h14zm17-9h11v-29h-11v-9h33v9h-11v29h11v9h-33zm42 13h35v9h-35z"/>
    <path d="M123 123h31v31h-31ZM0 92h31v31H0Zm123 0h31v31h-31ZM0 62h31v31H0Zm123 0h31v31h-31ZM62 92h31v31H62ZM31 62h31v31H31Zm62 0h31v31H93Zm-31 0h31v31H62ZM31 31h31v31H31Zm62 0h31v31H93ZM0 31h31v31H0Zm123 0h31v31h-31ZM0 0h31v31H0Zm0 123h31v31H0ZM123 0h31v31h-31z"/>
</svg>