<svg xmlns="http://www.w3.org/2000/svg" viewBox="0 0 646 854" fill="currentColor">
    <path d="M140.63.24c-7.97 1.29-17.53 5.46-24.28 10.6-20.4 15.51-36.22 48.43-42.9 89.44a372.22 372.22 0 0 0-4.24 53.46c0 19.37 2.27 44.13 5.52 61.24.74 3.8 1.1 7.17.8 7.42-.25.24-3.25 2.7-6.62 5.39-11.53 9.2-24.7 23.36-33.78 36.29a195.31 195.31 0 0 0-33.4 83.19c-1.85 12.01-2.34 36.29-.87 48.3 3.25 27.7 11.59 51.13 25.87 72.58l4.66 6.93-1.35 2.27c-9.56 16.06-17.71 39.29-21.51 61.6-3 17.66-3.38 22.38-3.38 46.04 0 23.85.31 28.57 3.13 45.06 3.37 19.74 10.24 40.64 17.9 54.56 2.51 4.53 8.64 13.97 9.38 14.46.24.12-.5 2.4-1.66 5.03-8.82 19.3-16.36 45-19.49 66.63-2.2 14.84-2.51 19.62-2.51 35.25 0 19.92 1.1 29.6 5.27 45.49l.61 2.32h52.54l-1.72-3.24c-10.6-19.62-11.59-56.03-2.45-92.38 4.17-16.8 8.89-29.12 17.71-46.1l5.28-10.3v-6.31c0-5.89-.13-6.56-2.03-10.43-1.47-2.94-3.43-5.45-6.92-8.88a61.88 61.88 0 0 1-13.67-19.31c-15.08-32.74-18.03-81.35-7.42-122.8 4.41-17.28 11.7-32.66 19.37-41.06 5.21-5.77 7.9-12.2 7.9-18.88 0-6.93-2.44-12.63-7.96-18.58-15.82-16.92-25.56-37.51-29.06-61.48-4.96-34.15 4.05-71.36 24.52-100.84 20.05-28.94 48.19-47.51 79.63-52.48 7.05-1.16 20.23-.98 27.59.37 8.03 1.41 13.06.98 18.2-1.47 6.38-3 9.57-6.74 13.3-15.33 3.32-7.66 5.9-11.83 12.82-20.47 8.34-10.36 16.37-17.4 29.24-25.93 14.71-9.62 31.45-16.61 48.12-19.98 6.07-1.23 8.89-1.41 20.23-1.41s14.16.18 20.23 1.4c24.46 4.97 48.73 17.6 68.1 35.5 4.17 3.86 14.17 16.24 17.35 21.4a91.24 91.24 0 0 1 4.72 9.5c3.74 8.58 6.93 12.32 13.3 15.32 4.97 2.4 10.18 2.88 17.9 1.6 12.2-2.09 21.58-1.9 33.54.55 40.7 8.21 76.13 41.74 91.83 86.68 13.67 39.41 9.8 80.67-10.55 112.18a97.53 97.53 0 0 1-11.83 14.9c-10.73 11.46-10.73 25.68-.06 37.45 17.53 19.18 28.5 66.39 25.2 108.01-2.21 27.46-9.26 52.04-18.95 65.96a74.57 74.57 0 0 1-7.97 9.2c-3.5 3.43-5.45 5.94-6.92 8.88-1.9 3.87-2.03 4.54-2.03 10.43v6.3l5.27 10.3c8.83 16.99 13.55 29.3 17.72 46.1 9.01 35.87 8.22 71.54-2.08 91.84a30.03 30.03 0 0 0-1.6 3.49c0 .18 11.71.3 26.06.3h25.99l.67-2.63c.37-1.41.98-3.56 1.29-4.78.67-2.7 2.02-10.67 3.13-18.33 1.04-7.72 1.04-36.17 0-44.75-3.93-31.14-10.49-55.85-21.21-79.2-1.17-2.64-1.9-4.9-1.66-5.03.3-.18 2.02-2.63 3.86-5.4 13.37-20.22 21.58-45.66 25.75-79.25 1.1-9.26 1.1-49.05 0-57.93-2.94-22.93-6.5-38.5-12.38-54.26-2.46-6.56-8.95-20.4-11.71-24.88l-1.35-2.27 4.66-6.93c14.28-21.45 22.62-44.87 25.87-72.58 1.47-12.01.98-36.29-.86-48.3-4.78-30.47-16-58.42-33.41-83.19-9.07-12.93-22.25-27.1-33.78-36.3-3.37-2.69-6.37-5.14-6.62-5.38-.3-.25.06-3.62.8-7.42 7.42-38.68 7.17-86.93-.61-124.63-6.75-32.85-19-58.97-34.82-74.05C523.2 4.3 510.34-.86 494.89.12c-35.43 2.08-64 42.85-75.28 107.09-1.84 10.36-3.43 22.5-3.43 25.8 0 1.3-.25 2.34-.55 2.34-.31 0-2.7-1.23-5.28-2.76-27.34-16.19-57.74-24.83-87.35-24.83-29.6 0-60.01 8.64-87.35 24.83-2.58 1.53-4.97 2.76-5.28 2.76-.3 0-.55-1.04-.55-2.33 0-3.44-1.65-15.94-3.43-25.81-10.24-57.68-33.72-95.87-64.92-105.5C157.18.42 144.98-.43 140.63.24Zm10.42 49.9c8.83 6.99 18.64 26.97 24.28 49.35 1.04 4.04 2.14 8.7 2.45 10.42.24 1.65.92 5.4 1.47 8.27 2.39 13 3.5 27.04 3.62 44.14l.06 16.86-4.23 6.25-4.23 6.31h-9.87c-11.53 0-22.99 1.48-33.96 4.42-3.93.98-7.73 1.96-8.46 2.14-1.17.25-1.35-.12-2.03-5.15-3.61-27.28-3.43-57.5.56-82.63 4.41-28.01 14.7-53.4 24.76-60.87 2.4-1.78 2.82-1.72 5.58.49Zm349.54-.43c6.07 4.47 12.75 16.37 17.71 31.57 10 30.4 12.82 72.15 7.55 111.87-.68 5.03-.86 5.4-2.03 5.15-.73-.18-4.53-1.16-8.46-2.14a131.38 131.38 0 0 0-33.96-4.42h-9.87l-4.23-6.31-4.23-6.25.06-16.86c.13-23.78 2.33-42.36 7.6-63.02 5.58-22.19 15.45-42.17 24.22-49.16 2.76-2.2 3.19-2.27 5.64-.43Z"/>
    <path d="M313.5 358.24c-13.3 1.28-16.92 1.77-23.3 3.06-10.36 2.15-24.21 6.93-33.83 11.65-33.47 16.37-56.52 43.65-63.57 75.22-1.41 6.25-1.6 8.33-1.6 18.88 0 10.42.19 12.69 1.54 18.63 9.37 41.26 47.38 71.72 96.54 77.3 10.67 1.17 56.77 1.17 67.44 0 39.47-4.47 73.43-25.87 88.7-55.9 4.04-8.03 6-13.25 7.84-21.4 1.35-5.94 1.54-8.21 1.54-18.63 0-10.55-.19-12.63-1.6-18.88-10.24-45.86-54.74-81.96-109.3-88.83-7.1-.86-25.74-1.6-30.4-1.1Zm22.92 33.34c18.21 1.97 36.54 8.47 51.25 18.27 7.91 5.27 19.07 16.3 23.85 23.54 5.88 8.95 9.25 18.09 10.79 29.18.67 5.09.3 8.95-1.54 17.17-2.88 12.26-11.83 25.07-23.9 34.02-5.64 4.1-17.35 10.05-24.52 12.38-13.61 4.35-22.5 5.15-54.25 4.9-20.72-.18-24.4-.36-30.35-1.47-20.29-3.8-36.35-11.89-48-24.21-9.44-9.93-13.73-19-16.06-33.65-1.04-6.8.92-18.09 4.9-27.59 4.85-11.59 17.35-26 29.74-34.27 14.34-9.56 33.22-16.36 50.57-18.2 6.68-.74 20.84-.74 27.52-.06Z"/>
    <path d="M299.58 436.34c-4.65 2.5-7.9 8.88-6.92 13.6 1.1 5.1 5.57 10.24 12.56 14.47 3.74 2.27 3.99 2.58 4.17 4.84.12 1.35-.37 5.21-1.04 8.65a59.24 59.24 0 0 0-1.29 7.9c.06 2.64 2.52 6.93 5.09 9.02 2.27 1.84 2.7 1.9 9.07 2.08 5.83.19 7.05.06 9.38-1.04 6.01-2.94 7.54-8.34 5.33-18.7-1.83-8.64-1.47-9.99 3.13-12.63 4.84-2.82 10-7.78 11.53-11.15 2.94-6.44.24-13.73-6.26-17.1-1.59-.8-3.55-1.17-6.43-1.17-4.48 0-7.36 1.04-12.63 4.41l-3 1.9-1.9-1.16c-7.79-4.6-9.2-5.15-13.92-5.09-3.37 0-5.21.3-6.87 1.17Z"/>
    <path d="M150.74 365.17c-10.85 3.43-18.94 11.4-23.1 22.74-2.03 5.4-3.01 13.91-2.15 18.51 2.02 10.97 11.03 20.97 21.27 23.72 12.87 3.38 22.5 1.17 31.02-7.29 4.96-4.84 7.66-9.07 10.36-15.94 1.96-4.84 2.08-5.7 2.08-12.56l.06-7.36-2.57-5.27c-4.1-8.34-11.53-14.53-20.1-16.8-4.85-1.23-12.64-1.16-16.87.25Z"/>
    <path d="M478.15 364.98c-8.4 2.27-15.87 8.52-19.86 16.74l-2.57 5.27.06 7.36c0 6.86.12 7.72 2.08 12.56 2.7 6.87 5.4 11.1 10.36 15.94 8.52 8.46 18.15 10.67 31.02 7.3 7.42-1.97 14.84-8.22 18.4-15.51 3.06-6.2 3.8-10.67 2.81-17.72-2.27-16.12-11.7-27.83-25.75-31.94-4.1-1.22-12.07-1.22-16.55 0Z"/>
</svg>