<svg xmlns="http://www.w3.org/2000/svg" viewBox="0 0 1180 320" fill="currentColor">
    <path d="M367 154c0 52 34 89 81 89s80-37 80-89-34-89-80-89-81 37-81 89zm130 0c0 37-20 62-49 62s-50-25-50-62 21-62 50-62 49 24 49 62z"/>
    <path d="M614 243c36 0 56-30 56-66s-20-65-56-65c-16 0-28 6-36 15v-13h-29v169h29v-56c8 9 20 16 36 16zm-37-69c0-24 14-37 32-37 20 0 32 16 32 40s-12 40-32 40c-18 0-32-13-32-36z"/>
    <path d="M748 243c25 0 45-14 54-36l-25-9c-4 13-15 20-29 20-19 0-32-13-34-35h88v-9c0-35-19-62-56-62s-60 28-60 65c0 39 26 66 62 66zm-2-107c18 0 27 12 27 26h-58c5-17 16-26 31-26z"/>
    <path d="M824 240h29v-74c0-18 13-28 26-28 16 0 22 12 22 27v75h29v-83c0-27-16-45-42-45-17 0-28 7-35 15v-13h-29z"/>
    <path d="m1014 68-65 172h30l15-39h74l15 39h31l-65-172zm17 34 27 72h-54z"/>
    <path d="M1164 68h-31v173h31z"/>
    <path d="M297 131c7-22 5-46-7-66a81 81 0 0 0-87-38A81 81 0 0 0 66 56c-22 4-42 19-53 38a81 81 0 0 0 10 95c-7 22-5 46 7 66 17 30 52 46 87 38a81 81 0 0 0 137-29c22-4 42-19 53-39 18-30 14-68-10-94zM177 299c-14 0-28-5-39-14l2-1 64-37c3-2 5-5 5-9v-90l27 16 1 1v74c0 33-27 60-60 60zM48 244c-7-12-10-26-7-40l2 1 63 37c4 2 8 2 11 0l78-45v31l-1 1-64 37c-29 17-65 7-82-22zM31 105c7-12 18-21 31-26v75c0 4 2 8 6 10l77 44-27 16-65-37a60 60 0 0 1-22-82zm221 51-77-44 27-16 65 37a60 60 0 0 1-9 108v-75c0-4-2-8-6-10zm27-40-2-1-63-37c-4-2-8-2-11 0l-78 45V92l1-1 64-37a60 60 0 0 1 89 62zm-168 56-27-16-1-1V81a60 60 0 0 1 99-46l-2 1-64 37c-3 2-5 5-5 9v90zm14-32 35-20 35 20v40l-35 20-35-20z"/>
</svg>